<svg xmlns="http://www.w3.org/2000/svg" viewBox="0 0 250 250"><defs><linearGradient id="g" x1="0" y1="0" x2="1" y2="1"><stop stop-color="#f34e62"/><stop offset=".52" stop-color="#f0ad74"/><stop offset="1" stop-color="#6a8394"/></linearGradient></defs><rect width="250" height="250" fill="url(#g)"/><circle cx="142" cy="123" r="52" fill="#284653"/><path d="M117 71l38 36-10 73-43-26 18-40-35-14z" fill="#d88442"/><path d="M46 45l22 38 39-18-14 42 30 22-49 1-17 43-7-47-42-9 39-25z" fill="#263f47" opacity=".92"/><path d="M165 44l8 19 20-7-12 18 14 16-22-4-10 20-2-23-23-3 20-10z" fill="#769fa5"/></svg>